<svg width="1440" height="64" viewBox="0 0 1440 64" fill="none" xmlns="http://www.w3.org/2000/svg">
<g opacity="0.7" clip-path="url(#clip0_17_51)">
<path d="M1439.57 0.420898H1403.68H1391.71V13.0525V25.6841V38.3156H1403.68H1427.61V50.9472H1391.71H1343.87V38.3156H1367.79H1379.75V25.6841V13.0525V0.420898H1367.79H1319.94H1319.54H1283.65H1271.69V13.0525V25.6841V38.3156H1283.65H1307.57V50.9472H1271.69H1223.83V38.3156H1247.76H1259.73V25.6841V13.0525V0.420898H1247.76H1199.9H1199.51H1163.62H1151.66V13.0525V25.6841V38.3156H1163.62H1187.55V50.9472H1151.66H1103.8V38.3156H1127.73H1139.69V25.6841V13.0525V0.420898H1127.73H1079.88H1079.48H1043.59H1031.62V13.0525V25.6841V38.3156H1043.59H1067.51V50.9472H1031.62H983.776V38.3156H1007.69H1019.66V25.6841V13.0525V0.420898H1007.69H959.848H959.443H923.555H911.596V13.0525V25.6841V38.3156H923.555H947.483V50.9472H911.596H863.74V38.3156H887.668H899.627V25.6841V13.0525V0.420898H887.668H839.812H803.528H791.56V13.0525V25.6841V38.3156H803.528H827.456V50.9472H791.56H743.713V38.3156H767.64H779.6V25.6841V13.0525V0.420898H767.64H719.785H683.897H671.929V13.0525V25.6841V38.3156H683.897H707.825V50.9472H671.929H624.082V38.3156H648.009H659.969V25.6841V13.0525V0.420898H648.009H600.154H599.757H563.861H551.902V13.0525V25.6841V38.3156H563.861H587.789V50.9472H551.902H504.046V38.3156H527.974H539.942V25.6841V13.0525V0.420898H527.974H480.126H479.721H443.834H431.874V13.0525V25.6841V38.3156H443.834H467.762V50.9472H431.874H384.018V38.3156H407.946H419.906V25.6841V13.0525V0.420898H407.946H360.09H359.694H323.807H311.838V13.0525V25.6841V38.3156H323.807H347.726V50.9472H311.838H263.991V38.3156H287.91H299.879V25.6841V13.0525V0.420898H287.91H240.063H239.658H203.771H191.811V13.0525V25.6841V38.3156H203.771H227.699V50.9472H191.811H143.955V38.3156H167.883H179.843V25.6841V13.0525V0.420898H167.883H120.027H83.7434H71.7751V13.0525V25.6841V38.3156H83.7434H107.671V50.9472H71.7751H23.9279V38.3156H47.8558H59.8155V25.6841V13.0525V0.420898H47.8558H0" stroke="white" stroke-width="2" stroke-miterlimit="10"/>
<path d="M0 13.0527H47.8558V25.6843H11.9596V38.3159V50.9475V63.5791H23.9279H71.7751H107.671H119.631V60.2948V50.9475V38.3159V25.6843H83.7434V13.0527H120.027H167.883V25.6843H131.996V38.3159V50.9475V63.5791H143.955H191.811H227.699H239.658V60.2948V50.9475V38.3159V25.6843H203.771V13.0527H239.658H240.063H287.91V25.6843H252.023V38.3159V50.9475V63.5791H263.991H311.838H347.726H359.694V60.2948V50.9475V38.3159V25.6843H323.807V13.0527H359.694H360.09H407.946V25.6843H372.059V38.3159V50.9475V63.5791H384.018H431.874H467.762H479.721V60.2948V50.9475V38.3159V25.6843H443.834V13.0527H479.721H480.126H527.974V25.6843H492.086V38.3159V50.9475V63.5791H504.046H551.902H587.789H599.757V60.2948V50.9475V38.3159V25.6843H563.861V13.0527H599.757H600.154H648.009V25.6843H612.113V38.3159V50.9475V63.5791H624.082H671.929H707.825H719.785V60.2948V50.9475V38.3159V25.6843H683.897V13.0527H719.785H767.64V25.6843H731.744V38.3159V50.9475V63.5791H743.713H791.56H827.456H839.416V60.2948V50.9475V38.3159V25.6843H803.528V13.0527H839.812H887.668V25.6843H851.78V38.3159V50.9475V63.5791H863.74H911.596H947.483H959.443V60.2948V50.9475V38.3159V25.6843H923.555V13.0527H959.443H959.848H1007.69V25.6843H971.807V38.3159V50.9475V63.5791H983.776H1031.62H1067.51H1079.48V60.2948V50.9475V38.3159V25.6843H1043.59V13.0527H1079.48H1079.88H1127.73V25.6843H1091.84V38.3159V50.9475V63.5791H1103.8H1151.66H1187.55H1199.51V60.2948V50.9475V38.3159V25.6843H1163.62V13.0527H1199.51H1199.9H1247.76V25.6843H1211.87V38.3159V50.9475V63.5791H1223.83H1271.69H1307.57H1319.54V60.2948V50.9475V38.3159V25.6843H1283.65V13.0527H1319.54H1319.94H1367.79V25.6843H1331.9V38.3159V50.9475V63.5791H1343.87H1391.71H1427.61H1439.57V60.2948V50.9475V38.3159V25.6843H1403.68V13.0527H1439.57" stroke="white" stroke-width="2" stroke-miterlimit="10"/>
</g>
<defs>
<clipPath id="clip0_17_51">
<rect width="1440" height="64" fill="white"/>
</clipPath>
</defs>
</svg>
