<svg width="462" height="261" viewBox="0 0 462 261" fill="none" xmlns="http://www.w3.org/2000/svg">
<path opacity="0.2" d="M140.742 118.273C52.3079 110.942 0.486224 77.6398 0.486224 77.6398L44.6353 54.343C44.6353 54.343 12.9822 95.6569 140.742 118.263V118.273ZM321.277 118.273C409.712 110.942 461.533 77.6398 461.533 77.6398L417.384 54.343C417.384 54.343 449.037 95.6569 321.277 118.263V118.273ZM388.969 55.5389C385.323 28.4793 316.113 0 231.248 0C146.383 0 77.1734 28.4793 73.5267 55.5389C70.0065 81.7235 146.383 95.6569 231.248 95.6569C316.113 95.6569 392.489 81.7235 388.969 55.5389ZM182.266 261V237.907C117.141 233.785 73.0891 223.381 44.6353 213.473V236.566C73.0989 246.483 117.151 256.887 182.266 261ZM44.6353 204.421V177.157C73.0794 187.123 116.781 197.585 182.266 201.727V229.02C116.781 224.878 73.0794 214.377 44.6353 204.421ZM44.6353 169.194V141.93C73.0794 151.896 116.781 162.358 182.266 166.5V193.793C116.781 189.651 73.0794 179.15 44.6353 169.194ZM44.6353 133.957V106.693C73.0794 116.659 116.781 127.121 182.266 131.263V158.556C116.781 154.414 73.0794 143.913 44.6353 133.957ZM0.00971913 191.499V201.63C0.00971913 210.391 4.80389 218.442 12.4862 222.652C18.1945 225.783 26.0519 229.575 36.4182 233.561V210.469C10.1037 200.347 0 191.499 0 191.499H0.00971913ZM36.4279 174.133V201.397C10.4733 191.353 0.495943 182.612 0.495943 182.612V155.348C0.495943 155.348 10.4733 164.089 36.4279 174.133ZM36.4279 138.906V166.17C10.4733 156.126 0.495943 147.384 0.495943 147.384V120.121C0.495943 120.121 10.4733 128.862 36.4279 138.906ZM36.4279 103.669V130.933C10.4733 120.889 0.495943 112.147 0.495943 112.147V84.8836C0.495943 84.8836 10.4733 93.6247 36.4279 103.669ZM417.384 236.566V213.473C388.921 223.391 344.869 233.794 279.754 237.907V261C344.878 256.877 388.93 246.474 417.384 236.566ZM279.754 229.02V201.727C345.238 197.585 388.94 187.123 417.384 177.157V204.421C388.94 214.387 345.238 224.878 279.754 229.02ZM279.754 193.793V166.5C345.238 162.358 388.94 151.896 417.384 141.93V169.194C388.94 179.16 345.238 189.651 279.754 193.793ZM279.754 158.556V131.263C345.238 127.121 388.94 116.659 417.384 106.693V133.957C388.94 143.923 345.238 154.414 279.754 158.556ZM425.592 210.469V233.561C435.958 229.575 443.825 225.783 449.524 222.652C457.206 218.442 462 210.391 462 201.63V191.499C462 191.499 451.896 200.347 425.582 210.469H425.592ZM461.533 155.357V182.621C461.533 182.621 451.556 191.362 425.601 201.406V174.143C451.556 164.099 461.533 155.357 461.533 155.357ZM461.533 120.121V147.384C461.533 147.384 451.556 156.126 425.601 166.17V138.906C451.556 128.862 461.533 120.121 461.533 120.121ZM461.533 84.8933V112.157C461.533 112.157 451.556 120.898 425.601 130.942V103.679C451.556 93.6345 461.533 84.8933 461.533 84.8933ZM270.865 130.933H191.154V261H270.865V130.933Z" fill="white"/>
</svg>
