<svg width="176" height="48" viewBox="0 0 176 48" fill="none" xmlns="http://www.w3.org/2000/svg">
<path d="M36 4H30C27.3478 4 24.8043 5.05357 22.9289 6.92893C21.0536 8.8043 20 11.3478 20 14V20H14V28H20V44H28V28H34L36 20H28V14C28 13.4696 28.2107 12.9609 28.5858 12.5858C28.9609 12.2107 29.4696 12 30 12H36V4Z" fill="white"/>
<path d="M108 24C108 35.0457 99.0457 44 88 44M108 24C108 12.9543 99.0457 4 88 4M108 24H68M88 44C76.9543 44 68 35.0457 68 24M88 44C82.8645 38.6077 80 31.4465 80 24C80 16.5535 82.8645 9.39231 88 4M88 44C93.1355 38.6077 96 31.4465 96 24C96 16.5535 93.1355 9.39231 88 4M68 24C68 12.9543 76.9543 4 88 4" stroke="white" stroke-width="4" stroke-linecap="round" stroke-linejoin="round"/>
<path d="M163 13H163.02M142 4H162C167.523 4 172 8.47715 172 14V34C172 39.5228 167.523 44 162 44H142C136.477 44 132 39.5228 132 34V14C132 8.47715 136.477 4 142 4ZM160 22.7396C160.247 24.4041 159.962 26.1041 159.187 27.5977C158.412 29.0913 157.186 30.3025 155.683 31.059C154.18 31.8155 152.477 32.0788 150.815 31.8115C149.154 31.5442 147.619 30.7598 146.43 29.5699C145.24 28.3801 144.455 26.8454 144.188 25.1841C143.921 23.5227 144.184 21.8194 144.941 20.3164C145.697 18.8133 146.908 17.5871 148.402 16.8121C149.895 16.0371 151.595 15.7528 153.26 15.9996C154.958 16.2514 156.53 17.0426 157.743 18.2562C158.957 19.4699 159.748 21.0418 160 22.7396Z" stroke="white" stroke-width="4" stroke-linecap="round" stroke-linejoin="round"/>
</svg>
