<svg width="48" height="48" viewBox="0 0 48 48" fill="none" xmlns="http://www.w3.org/2000/svg">
<path d="M35 13H35.02M14 4H34C39.5228 4 44 8.47715 44 14V34C44 39.5228 39.5228 44 34 44H14C8.47715 44 4 39.5228 4 34V14C4 8.47715 8.47715 4 14 4ZM31.9999 22.7396C32.2467 24.4041 31.9624 26.1041 31.1874 27.5977C30.4124 29.0913 29.1862 30.3025 27.6832 31.059C26.1801 31.8155 24.4768 32.0788 22.8155 31.8115C21.1542 31.5442 19.6194 30.7598 18.4296 29.5699C17.2397 28.3801 16.4554 26.8454 16.188 25.1841C15.9207 23.5227 16.184 21.8194 16.9406 20.3164C17.6971 18.8133 18.9083 17.5871 20.4019 16.8121C21.8955 16.0371 23.5954 15.7528 25.2599 15.9996C26.9577 16.2514 28.5296 17.0426 29.7433 18.2562C30.957 19.4699 31.7481 21.0418 31.9999 22.7396Z" stroke="white" stroke-width="4" stroke-linecap="round" stroke-linejoin="round"/>
</svg>
